<?xml version="1.0" encoding="utf-8"?>
<!-- Generator: Adobe Illustrator 19.2.0, SVG Export Plug-In . SVG Version: 6.00 Build 0)  -->
<svg version="1.1" id="Layer_1" xmlns="http://www.w3.org/2000/svg" xmlns:xlink="http://www.w3.org/1999/xlink" x="0px" y="0px"
	 viewBox="0 0 500 500" style="enable-background:new 0 0 500 500;" xml:space="preserve">
<style type="text/css">
	.st0{fill:#ECF4F7;}
	.st1{fill:#1C1D21;}
	.st2{fill:#83E1E5;}
	.st3{fill:#AAB1BA;}
	.st4{fill:none;stroke:#1C1D21;stroke-width:10;stroke-linecap:round;stroke-linejoin:round;stroke-miterlimit:10;}
	.st5{fill:#FDDF7F;}
	.st6{fill:#FFFFFF;}
</style>
<g>
	<g>
		<g>
			<path class="st2" d="M340.1,336.7h-219c-12.9,0-23.3-10.4-23.3-23.3V132c0-12.9,10.4-23.3,23.3-23.3h351.2
				c13.5,0,24,11.6,22.6,25l-7.2,69.8C479.9,279.2,416.1,336.7,340.1,336.7z"/>
		</g>
	</g>
	<g>
		<g>
			<path class="st3" d="M492.3,159l2.6-25.3c1.4-13.4-9.1-25-22.6-25H121.1c-12.9,0-23.3,10.4-23.3,23.3v27H492.3z"/>
		</g>
	</g>
	<g>
		<g>
			<path class="st1" d="M340.1,341.7h-219c-15.6,0-28.3-12.7-28.3-28.3V132c0-15.6,12.7-28.3,28.3-28.3h351.2
				c7.8,0,15.3,3.3,20.6,9.1c5.2,5.8,7.8,13.6,7,21.4l-7.2,69.8c-3.9,37.8-21.6,72.7-49.8,98.2C414.6,327.6,378.1,341.7,340.1,341.7
				z M121.1,113.7c-10.1,0-18.3,8.2-18.3,18.3v181.3c0,10.1,8.2,18.3,18.3,18.3h219c73.8,0,135.1-55.3,142.6-128.7l7.2-69.8
				c0.5-5-1.1-9.9-4.5-13.7c-3.4-3.8-8.1-5.8-13.1-5.8H121.1z"/>
		</g>
	</g>
	<g>
		<g>
			<path class="st1" d="M453.4,405.4H132.8c-22.1,0-40-17.9-40-40V44.8c0-16.4-13-30.1-29-30.6C55.6,14,47.9,17,42.1,22.6
				c-5.8,5.7-9,13.3-9,21.4c0,2.8-2.2,5-5,5c-2.8,0-5-2.2-5-5c0-10.9,4.3-21,12.1-28.6C42.9,7.9,53.2,3.9,64,4.2
				c21.4,0.6,38.7,18.8,38.7,40.6v320.6c0,16.5,13.5,30,30,30h320.6c2.8,0,5,2.2,5,5C458.4,403.1,456.1,405.4,453.4,405.4z"/>
		</g>
	</g>
	<g>
		<g>
			<g>
				<g>
					<circle class="st3" cx="196.7" cy="445.6" r="45.2"/>
				</g>
			</g>
			<g>
				<g>
					<path class="st1" d="M196.7,495.8c-27.7,0-50.2-22.5-50.2-50.2c0-27.7,22.5-50.2,50.2-50.2c27.7,0,50.2,22.5,50.2,50.2
						C246.9,473.3,224.4,495.8,196.7,495.8z M196.7,405.4c-22.2,0-40.2,18-40.2,40.2c0,22.2,18,40.2,40.2,40.2s40.2-18,40.2-40.2
						C236.9,423.4,218.9,405.4,196.7,405.4z"/>
				</g>
			</g>
		</g>
		<g>
			<g>
				<g>
					<circle class="st3" cx="373.1" cy="445.6" r="45.2"/>
				</g>
			</g>
			<g>
				<g>
					<path class="st1" d="M373.1,495.8c-27.7,0-50.2-22.5-50.2-50.2c0-27.7,22.5-50.2,50.2-50.2c27.7,0,50.2,22.5,50.2,50.2
						C423.3,473.3,400.7,495.8,373.1,495.8z M373.1,405.4c-22.2,0-40.2,18-40.2,40.2c0,22.2,18,40.2,40.2,40.2
						c22.2,0,40.2-18,40.2-40.2C413.3,423.4,395.2,405.4,373.1,405.4z"/>
				</g>
			</g>
		</g>
	</g>
	<g>
		<g>
			<path class="st1" d="M196.7,450.6c-1.3,0-2.6-0.5-3.5-1.5c-0.9-0.9-1.5-2.2-1.5-3.5c0-1.3,0.5-2.6,1.5-3.5
				c0.9-0.9,2.2-1.5,3.5-1.5c1.3,0,2.6,0.5,3.5,1.5c0.9,0.9,1.5,2.2,1.5,3.5c0,1.3-0.5,2.6-1.5,3.5
				C199.3,450.1,198,450.6,196.7,450.6z"/>
		</g>
	</g>
	<g>
		<g>
			<path class="st1" d="M373,450.6c-1.3,0-2.6-0.5-3.5-1.5c-0.9-0.9-1.5-2.2-1.5-3.5c0-1.3,0.5-2.6,1.5-3.5c0.9-0.9,2.2-1.5,3.5-1.5
				s2.6,0.5,3.5,1.5c0.9,0.9,1.5,2.2,1.5,3.5c0,1.3-0.5,2.6-1.5,3.5C375.7,450.1,374.4,450.6,373,450.6z"/>
		</g>
	</g>
	<g>
		<g>
			<path class="st1" d="M373.1,495.8H51.1c-2.8,0-5-2.2-5-5c0-2.8,2.2-5,5-5h321.9c2.8,0,5,2.2,5,5
				C378.1,493.6,375.8,495.8,373.1,495.8z"/>
		</g>
	</g>
	<g>
		<g>
			<path class="st1" d="M22.7,495.8H5c-2.8,0-5-2.2-5-5c0-2.8,2.2-5,5-5h17.7c2.8,0,5,2.2,5,5C27.7,493.6,25.5,495.8,22.7,495.8z"/>
		</g>
	</g>
	<g>
		<g>
			<path class="st1" d="M330.4,162H97.8c-2.8,0-5-2.2-5-5s2.2-5,5-5h232.7c2.8,0,5,2.2,5,5S333.2,162,330.4,162z"/>
		</g>
	</g>
	<g>
		<g>
			<path class="st1" d="M411.1,162h-41.8c-2.8,0-5-2.2-5-5s2.2-5,5-5h41.8c2.8,0,5,2.2,5,5S413.9,162,411.1,162z"/>
		</g>
	</g>
	<g>
		<g>
			<path class="st1" d="M453.4,162h-16.1c-2.8,0-5-2.2-5-5s2.2-5,5-5h16.1c2.8,0,5,2.2,5,5S456.1,162,453.4,162z"/>
		</g>
	</g>
</g>
</svg>
