<?xml version="1.0" encoding="utf-8"?>
<!-- Generator: Adobe Illustrator 24.0.0, SVG Export Plug-In . SVG Version: 6.00 Build 0)  -->
<svg version="1.1" id="Layer_1" xmlns="http://www.w3.org/2000/svg" xmlns:xlink="http://www.w3.org/1999/xlink" x="0px" y="0px"
	 viewBox="0 0 256 256" enable-background="new 0 0 256 256" xml:space="preserve">
<g>
	<path fill="#CECECE" d="M32.035,210.046c-7.535,0-13.665-6.13-13.665-13.665V72.605c0-7.535,6.13-13.665,13.665-13.665h191.931
		c7.535,0,13.665,6.13,13.665,13.665v123.776c0,7.535-6.13,13.665-13.665,13.665H32.035z"/>
	<g>
		<path fill="#E2E2E2" d="M223.965,58.94h-14.667c7.534,0,13.665,6.13,13.665,13.665v123.776c0,7.534-6.13,13.665-13.665,13.665
			h14.667c7.535,0,13.665-6.13,13.665-13.665V72.605C237.63,65.071,231.5,58.94,223.965,58.94z"/>
	</g>
	<g>
		<path fill="#AFAFAF" d="M32.035,58.94h14.667c-7.534,0-13.665,6.13-13.665,13.665v123.776c0,7.534,6.13,13.665,13.665,13.665
			H32.035c-7.535,0-13.665-6.13-13.665-13.665V72.605C18.37,65.071,24.5,58.94,32.035,58.94z"/>
	</g>
	<path fill="#63BCE7" d="M229.221,72.629v123.728c0,2.916-2.364,5.28-5.28,5.28H32.059c-2.916,0-5.28-2.364-5.28-5.28V72.629
		c0-2.916,2.364-5.28,5.28-5.28h191.882C226.857,67.349,229.221,69.713,229.221,72.629z"/>
	<g>
		<path fill="#63E2E7" d="M223.941,67.349h-14.667c2.916,0,5.28,2.364,5.28,5.28v123.728c0,2.916-2.364,5.28-5.28,5.28h14.667
			c2.916,0,5.28-2.364,5.28-5.28V72.629C229.221,69.713,226.857,67.349,223.941,67.349z"/>
	</g>
	<g>
		<path fill="#6377E7" d="M32.059,67.349h14.667c-2.916,0-5.28,2.364-5.28,5.28v123.728c0,2.916,2.364,5.28,5.28,5.28H32.059
			c-2.916,0-5.28-2.364-5.28-5.28V72.629C26.779,69.713,29.143,67.349,32.059,67.349z"/>
	</g>
	<path fill="#CECECE" d="M128,210.046H8.667l3.053,7.024c2.751,6.329,8.995,10.423,15.896,10.423H128h100.385
		c6.901,0,13.145-4.094,15.896-10.423l3.053-7.024H128z"/>
	<g>
		<path fill="#E2E2E2" d="M232.667,210.046l-3.053,7.024c-2.751,6.329-8.995,10.423-15.896,10.423h14.667
			c6.901,0,13.145-4.094,15.896-10.423l3.053-7.024H232.667z"/>
	</g>
	<g>
		<path fill="#AFAFAF" d="M23.333,210.046l3.053,7.024c2.751,6.329,8.995,10.423,15.896,10.423H27.615
			c-6.901,0-13.145-4.094-15.896-10.423l-3.053-7.024H23.333z"/>
	</g>
	<path fill="#707070" d="M82.442,210.046l4.22,5.388c1.649,2.106,4.175,3.336,6.85,3.336h68.975c2.675,0,5.201-1.23,6.85-3.336
		l4.221-5.388H82.442z"/>
	<g>
		<circle fill="#CECECE" cx="168.886" cy="151.198" r="34.507"/>
		<circle fill="#F8AF23" cx="87.114" cy="151.198" r="34.507"/>
		<path fill="#CECECE" d="M101.923,171.006H72.305c-2.761,0-5-2.239-5-5v-29.618c0-2.761,2.239-5,5-5h29.618c2.761,0,5,2.239,5,5
			v29.618C106.923,168.768,104.684,171.006,101.923,171.006z"/>
		<path fill="#F46275" d="M183.695,171.058h-29.618c-2.761,0-5-2.239-5-5v-29.618c0-2.761,2.239-5,5-5h29.618c2.761,0,5,2.239,5,5
			v29.618C188.695,168.82,186.456,171.058,183.695,171.058z"/>
	</g>
	<circle fill="#CECECE" cx="128" cy="67.57" r="50.037"/>
	<g>
		<path fill="#AFAFAF" d="M92.63,67.57c0-25.143,18.546-45.948,42.703-49.497c-2.394-0.352-4.841-0.54-7.333-0.54
			c-27.635,0-50.037,22.402-50.037,50.037c0,27.634,22.402,50.037,50.037,50.037c2.492,0,4.939-0.188,7.333-0.54
			C111.176,113.518,92.63,92.713,92.63,67.57z"/>
	</g>
	<g>
		<circle fill="#F8AF23" cx="152.697" cy="66.343" r="10.006"/>
		<polygon fill="#F8AF23" points="143.34,89.861 119.937,77.58 119.937,55.096 143.34,42.814 		"/>
		<rect x="143.34" y="42.814" fill="#F46275" width="9.357" height="47.047"/>
		<rect x="100.254" y="55.096" fill="#CECECE" width="19.683" height="22.494"/>
		<rect x="88.482" y="60.712" fill="#F46275" width="11.772" height="11.252"/>
		<rect x="105.754" y="77.589" fill="#CECECE" width="8.682" height="17.596"/>
		<g>
			<path fill="#3F3679" d="M245.656,217.668l3.053-7.023c0.202-0.464,0.156-0.998-0.121-1.421c-0.277-0.422-0.749-0.677-1.254-0.677
				h-14.352c3.722-2.766,6.149-7.182,6.149-12.165V72.605c0-8.362-6.803-15.165-15.165-15.165h-45.434
				c-4.72-23.583-25.581-41.407-50.531-41.407S82.189,33.858,77.469,57.44H32.035c-8.362,0-15.165,6.803-15.165,15.165v123.776
				c0,4.983,2.427,9.399,6.149,12.165H8.667c-0.505,0-0.977,0.255-1.254,0.678c-0.277,0.422-0.323,0.957-0.121,1.42l3.053,7.023
				c1.517,3.491,4.013,6.351,7.08,8.325H9.32c-0.829,0-1.5,0.671-1.5,1.5s0.671,1.5,1.5,1.5h18.295h200.77h18.295
				c0.829,0,1.5-0.671,1.5-1.5s-0.671-1.5-1.5-1.5h-8.104C241.644,224.019,244.139,221.159,245.656,217.668z M223.941,68.849
				c2.084,0,3.78,1.696,3.78,3.78v123.728c0,2.084-1.696,3.78-3.78,3.78H32.059c-2.084,0-3.78-1.696-3.78-3.78V72.629
				c0-2.084,1.696-3.78,3.78-3.78h44.437c0.683,27.827,23.516,50.258,51.504,50.258s50.821-22.431,51.504-50.258H223.941z
				 M128,19.034c26.763,0,48.537,21.773,48.537,48.537S154.763,116.107,128,116.107S79.463,94.333,79.463,67.57
				S101.237,19.034,128,19.034z M19.87,196.381V72.605c0-6.708,5.457-12.165,12.165-12.165h44.933
				c-0.247,1.776-0.401,3.58-0.461,5.409H32.059c-3.739,0-6.78,3.042-6.78,6.78v123.728c0,3.738,3.042,6.78,6.78,6.78h191.882
				c3.739,0,6.78-3.042,6.78-6.78V72.629c0-3.739-3.042-6.78-6.78-6.78h-44.448c-0.06-1.828-0.214-3.633-0.461-5.409h44.933
				c6.708,0,12.165,5.457,12.165,12.165v123.776c0,6.708-5.457,12.165-12.165,12.165h-50.407H82.442H32.035
				C25.327,208.546,19.87,203.089,19.87,196.381z M170.478,211.546l-2.321,2.963c-1.375,1.754-3.441,2.761-5.669,2.761H93.513
				c-2.229,0-4.295-1.006-5.669-2.761l-2.321-2.963H170.478z M228.385,225.993H27.615c-4.787,0-9.22-2.156-12.179-5.723h29.14
				c0.829,0,1.5-0.671,1.5-1.5s-0.671-1.5-1.5-1.5H13.478c-0.132-0.263-0.264-0.526-0.383-0.798l-2.141-4.925h21.081h49.677
				l3.77,4.813c1.947,2.486,4.874,3.911,8.031,3.911h68.975c3.157,0,6.084-1.425,8.031-3.911l3.77-4.813h49.677h21.081l-2.141,4.925
				c-0.118,0.272-0.25,0.535-0.383,0.798h-31.098c-0.829,0-1.5,0.671-1.5,1.5s0.671,1.5,1.5,1.5h29.14
				C237.605,223.837,233.171,225.993,228.385,225.993z"/>
			<path fill="#3F3679" d="M65.22,217.27H54.845c-0.829,0-1.5,0.671-1.5,1.5s0.671,1.5,1.5,1.5H65.22c0.829,0,1.5-0.671,1.5-1.5
				S66.048,217.27,65.22,217.27z"/>
			<path fill="#3F3679" d="M201.155,217.27H190.78c-0.829,0-1.5,0.671-1.5,1.5s0.671,1.5,1.5,1.5h10.375c0.829,0,1.5-0.671,1.5-1.5
				S201.984,217.27,201.155,217.27z"/>
			<path fill="#3F3679" d="M27.323,236.966H9.32c-0.829,0-1.5,0.671-1.5,1.5s0.671,1.5,1.5,1.5h18.003c0.829,0,1.5-0.671,1.5-1.5
				S28.152,236.966,27.323,236.966z"/>
			<path fill="#3F3679" d="M246.68,236.966h-18.003c-0.829,0-1.5,0.671-1.5,1.5s0.671,1.5,1.5,1.5h18.003c0.829,0,1.5-0.671,1.5-1.5
				S247.509,236.966,246.68,236.966z"/>
			<path fill="#3F3679" d="M218.479,236.966H37.521c-0.829,0-1.5,0.671-1.5,1.5s0.671,1.5,1.5,1.5h180.959
				c0.829,0,1.5-0.671,1.5-1.5S219.308,236.966,218.479,236.966z"/>
			<path fill="#3F3679" d="M132.879,151.198c0,19.854,16.153,36.007,36.007,36.007s36.007-16.153,36.007-36.007
				s-16.153-36.007-36.007-36.007S132.879,131.344,132.879,151.198z M168.886,118.191c18.2,0,33.007,14.807,33.007,33.007
				s-14.807,33.007-33.007,33.007s-33.007-14.807-33.007-33.007S150.686,118.191,168.886,118.191z"/>
			<path fill="#3F3679" d="M87.114,115.191c-19.854,0-36.007,16.153-36.007,36.007s16.153,36.007,36.007,36.007
				s36.007-16.153,36.007-36.007S106.968,115.191,87.114,115.191z M87.114,184.205c-18.2,0-33.007-14.807-33.007-33.007
				s14.807-33.007,33.007-33.007s33.007,14.807,33.007,33.007S105.314,184.205,87.114,184.205z"/>
			<path fill="#3F3679" d="M101.923,129.889H72.305c-3.584,0-6.5,2.916-6.5,6.5v29.618c0,3.584,2.916,6.5,6.5,6.5h29.618
				c3.584,0,6.5-2.916,6.5-6.5v-29.618C108.423,132.805,105.507,129.889,101.923,129.889z M105.423,166.006c0,1.93-1.57,3.5-3.5,3.5
				H72.305c-1.93,0-3.5-1.57-3.5-3.5v-29.618c0-1.93,1.57-3.5,3.5-3.5h29.618c1.93,0,3.5,1.57,3.5,3.5V166.006z"/>
			<path fill="#3F3679" d="M93.597,136.721c-5.013,0-9.091,4.078-9.091,9.091v1.911h-3.68c-0.829,0-1.5,0.671-1.5,1.5
				s0.671,1.5,1.5,1.5h3.68v13.452c0,0.829,0.671,1.5,1.5,1.5s1.5-0.671,1.5-1.5v-13.452h3.681c0.829,0,1.5-0.671,1.5-1.5
				s-0.671-1.5-1.5-1.5h-3.681v-1.911c0-3.359,2.732-6.091,6.091-6.091c0.829,0,1.5-0.671,1.5-1.5S94.425,136.721,93.597,136.721z"
				/>
			<path fill="#3F3679" d="M154.077,172.558h29.618c3.584,0,6.5-2.916,6.5-6.5V136.44c0-3.584-2.916-6.5-6.5-6.5h-29.618
				c-3.584,0-6.5,2.916-6.5,6.5v29.618C147.577,169.642,150.493,172.558,154.077,172.558z M150.577,136.44c0-1.93,1.57-3.5,3.5-3.5
				h29.618c1.93,0,3.5,1.57,3.5,3.5v29.618c0,1.93-1.57,3.5-3.5,3.5h-29.618c-1.93,0-3.5-1.57-3.5-3.5V136.44z"/>
			<path fill="#3F3679" d="M168.886,163.271c6.628,0,12.021-5.393,12.021-12.021s-5.393-12.021-12.021-12.021
				s-12.021,5.393-12.021,12.021S162.258,163.271,168.886,163.271z M168.886,142.229c4.974,0,9.021,4.047,9.021,9.021
				s-4.047,9.021-9.021,9.021s-9.021-4.047-9.021-9.021S163.912,142.229,168.886,142.229z"/>
			<path fill="#3F3679" d="M182.097,141.644c1.149,0,2.081-0.932,2.081-2.081s-0.932-2.081-2.081-2.081s-2.081,0.932-2.081,2.081
				S180.947,141.644,182.097,141.644z"/>
			<path fill="#3F3679" d="M88.482,73.463h10.272v4.126c0,0.829,0.671,1.5,1.5,1.5h4v16.096c0,0.829,0.671,1.5,1.5,1.5h8.682
				c0.829,0,1.5-0.671,1.5-1.5V79.089h3.649l23.058,12.1v-0.007c0.209,0.111,0.444,0.179,0.697,0.179h9.357
				c0.829,0,1.5-0.671,1.5-1.5V77.739c5.636-0.739,10.006-5.562,10.006-11.397s-4.369-10.658-10.006-11.397V42.814
				c0-0.829-0.671-1.5-1.5-1.5h-9.357c-0.253,0-0.488,0.069-0.697,0.179v-0.007l-23.076,12.109h-19.314c-0.829,0-1.5,0.671-1.5,1.5
				v4.116H88.482c-0.829,0-1.5,0.671-1.5,1.5v11.251C86.982,72.792,87.653,73.463,88.482,73.463z M161.203,66.342
				c0,4.177-3.03,7.654-7.006,8.365v-16.73C158.173,58.689,161.203,62.165,161.203,66.342z M144.84,44.314h6.357v44.047h-6.357
				V44.314z M112.937,93.686h-5.682V79.089h5.682V93.686z M141.84,87.38l-20.403-10.707V56.002l20.403-10.707V87.38z
				 M101.754,56.596h16.683v19.494h-4h-8.682h-4v-4.126V60.712V56.596z M89.982,62.212h8.772v8.251h-8.772V62.212z"/>
		</g>
	</g>
</g>
</svg>
