<svg xmlns="http://www.w3.org/2000/svg" viewBox="0 0 48 48"><defs><style>.cls-1{fill:#dad7e5;}.cls-2{fill:#edebf2;}.cls-3{fill:#db5669;}.cls-4{fill:#f26674;}.cls-5{fill:#edb996;}.cls-6{fill:#f6ccaf;}.cls-7{fill:#ffdec7;}.cls-8{fill:#374f68;}.cls-9{fill:#425b72;}.cls-10{fill:#a07765;}.cls-11{fill:#a87e6b;}.cls-12{fill:#be927c;}</style></defs><title>support call center</title><g id="support_call_center" data-name="support call center"><path class="cls-1" d="M43.56,39.71c-.49,6.34-.36,4.62-.56,7.29H5l-.56-7.29a8,8,0,0,1,4.82-8L18,28l6,5,6-5,8.74,3.74A8,8,0,0,1,43.56,39.71Z"/><path class="cls-2" d="M43.56,39.71,43.15,45h-23A12.78,12.78,0,0,1,7.36,32.9c1.18-1,1.46-1,10.64-4.9l6,5,6-5,8.74,3.74A8,8,0,0,1,43.56,39.71Z"/><path class="cls-3" d="M27,47H21l1-5-2-5,4-4,4,4-2,5C26.69,45.45,26.55,44.73,27,47Z"/><path class="cls-4" d="M26,42l.6,3a3,3,0,0,1-2.89-3.53L24,40l-2-5,2-2,4,4Z"/><path class="cls-1" d="M33.76,29.61,30,39l-6-6c2.19-1.81.77-.63,6-5Z"/><polygon class="cls-1" points="24 33 18 39 14.24 29.61 18 28 24 33"/><path class="cls-5" d="M30,24.29V28c-2.69,2.24-1.31,1.08-6,5l-6-5V24.29A8,8,0,0,0,30,24.29Z"/><path class="cls-6" d="M27.86,29.78,24,33c-3.92-3.27-4-3.43-4-3.33a1.29,1.29,0,0,1,1.93-1.13C24.16,29.8,25.71,30.33,27.86,29.78Z"/><path class="cls-6" d="M32,12c0,7,.4,8.94-1.44,11.57A8,8,0,0,1,18,24.29c-2.51-2.85-2-5.18-2-12.29A14.61,14.61,0,0,0,27,7,5,5,0,0,0,32,12Z"/><path class="cls-7" d="M32,12c0,7,.4,8.94-1.44,11.57a8,8,0,0,1-10.22-.91C17.54,19.86,18,17.11,18,11.85A14.33,14.33,0,0,0,27,7,5,5,0,0,0,32,12Z"/><path class="cls-8" d="M16,12v8H14a4,4,0,0,1-2.3-7.27C13,11.84,13.94,12,16,12Z"/><path class="cls-9" d="M16,12v7H15a4,4,0,0,1-3.3-6.27C13,11.84,13.94,12,16,12Z"/><path class="cls-10" d="M18,24.29V28l-5,2.14V19.87A11.34,11.34,0,0,0,16,20V19A8,8,0,0,0,18,24.29Z"/><path class="cls-11" d="M17,25.29v3.14l-4,1.71V21h2.07A7.94,7.94,0,0,0,17,25.29Z"/><path class="cls-11" d="M35,19.87V30.14L30,28V24.29A8,8,0,0,0,32,19v1A11.17,11.17,0,0,0,35,19.87Z"/><path class="cls-12" d="M35,12c0,.3.11,0-1,0H32a5,5,0,0,1-5-5,14.55,14.55,0,0,1-11,5H14c-1.08,0-1,.29-1,0a11,11,0,0,1,22,0Z"/><path class="cls-11" d="M19,10a2.26,2.26,0,0,1-2.19-2.92A11.93,11.93,0,0,1,19.49,2,11,11,0,0,0,13,12c0,.3-.11,0,1,0h2a15,15,0,0,0,9.65-3.61A15.25,15.25,0,0,1,19,10Z"/><path class="cls-8" d="M34,20H32V12a11.22,11.22,0,0,1,3,.13C39.53,13.28,38.67,20,34,20Z"/><path class="cls-9" d="M37.3,18.26C35.35,19.66,33,19,33,17V12a7.13,7.13,0,0,1,2,.13A4,4,0,0,1,37.3,18.26Z"/><rect class="cls-1" x="5" y="47" width="16" height="1"/><rect class="cls-3" x="21" y="47" width="6" height="1"/><rect class="cls-1" x="27" y="47" width="16" height="1"/><path d="M39.13,30.83,36,29.48v-8.9a5,5,0,0,0,0-9.17,12,12,0,0,0-23.94,0,5,5,0,0,0,0,9.17v8.9L8.87,30.83a9,9,0,0,0-5.43,9L4,47.08a1,1,0,0,0,2-.16l-.56-7.29a7,7,0,0,1,4.22-7l4.53-1.94,2.86,8.6A1,1,0,0,0,18,40c.54,0,.69-.28,1.63-1.22L21,42.1,20,46.8a1,1,0,0,0,2,.4l1-5c.08-.42.06-.3-1.81-5L24,34.41l2.83,2.83c-1.86,4.64-1.89,4.54-1.81,5l1,5a1,1,0,0,0,2-.4L27,42.1l1.33-3.32C29.23,39.64,29.45,40,30,40a1,1,0,0,0,.95-.68l2.86-8.6,4.53,1.94a7,7,0,0,1,4.22,7L42,46.92a1,1,0,0,0,2,.16l.56-7.29A9,9,0,0,0,39.13,30.83ZM31,27.34V25h3v3.63ZM24,31.7l-5-4.17V26.48a9,9,0,0,0,10,0v1.05ZM26.38,9.1A6,6,0,0,0,31,12.91c0,5.68.39,7.73-1.26,10.09H26a1,1,0,0,0,0,2h1.59A7,7,0,0,1,17,19V13A15.92,15.92,0,0,0,26.38,9.1ZM34,23h-2c1.2-2.4,0-2,2-2Zm3-7a3,3,0,0,1-3,3H33V13h1A3,3,0,0,1,37,16ZM24,2a10,10,0,0,1,10,9H32a4,4,0,0,1-4-4,1,1,0,0,0-1.78-.62A13.48,13.48,0,0,1,16,11H14.05A10,10,0,0,1,24,2ZM11,16a3,3,0,0,1,3-3h1v6H14A3,3,0,0,1,11,16Zm3,5h1.23A8.85,8.85,0,0,0,17,24.64v2.7l-3,1.29Zm4.44,16.15L16,29.93l1.8-.77,4.69,3.91C20.25,35.33,20.75,34.83,18.44,37.15Zm11.12,0-4.08-4.08,4.69-3.91,1.8.77Z"/></g></svg>