<?xml version="1.0" encoding="UTF-8"?>
<!DOCTYPE svg PUBLIC "-//W3C//DTD SVG 1.1//EN" "http://www.w3.org/Graphics/SVG/1.1/DTD/svg11.dtd">
<!-- Creator: CorelDRAW -->
<svg xmlns="http://www.w3.org/2000/svg" xml:space="preserve" width="2048px" height="2048px" style="shape-rendering:geometricPrecision; text-rendering:geometricPrecision; image-rendering:optimizeQuality; fill-rule:evenodd; clip-rule:evenodd"
viewBox="0 0 2048 2048"
 xmlns:xlink="http://www.w3.org/1999/xlink">
 <defs>
  <style type="text/css">
   <![CDATA[
    .fil2 {fill:none}
    .fil1 {fill:#424242}
    .fil0 {fill:#424242;fill-rule:nonzero}
   ]]>
  </style>
 </defs>
 <g id="Layer_x0020_1">
  <metadata id="CorelCorpID_0Corel-Layer"/>
  <g id="_324613232">
   <path id="_324613832" class="fil0" d="M1783.77 1194.26c9.7252,30.7914 10.8319,63.7749 3.32244,95.1686 -7.41615,31.004 -23.1248,60.3119 -47.1118,84.2989 -26.7638,26.7638 -59.9894,43.2213 -94.7139,49.3642 -29.8618,5.28307 -60.8434,2.87126 -89.7603,-7.23071l-310.62 310.622c-15.039,15.039 -34.8378,22.5614 -54.6154,22.5614 -19.7776,0 -39.5764,-7.52245 -54.6154,-22.5614 -15.0402,-15.0402 -22.5614,-34.8402 -22.5614,-54.6166l0.0968505 0c-0.0011811,-19.8366 7.48938,-39.639 22.4646,-54.6154l310.62 -310.621c-10.1032,-28.917 -12.5126,-59.8973 -7.22953,-89.7603 6.14292,-34.7244 22.6004,-67.9501 49.3642,-94.7139 23.987,-23.987 53.2973,-39.6957 84.2977,-47.1118 31.9276,-7.63701 65.4993,-6.3626 96.7335,3.82323l-7.63111 23.4721 7.66772 -23.5087c12.9839,4.23426 20.074,18.1937 15.841,31.1764 -1.30512,4.00276 -3.53504,7.44331 -6.3756,10.1669l-71.7048 71.7048c-8.64213,8.64213 -12.9638,20.0669 -12.9638,31.5095 0,11.4413 4.32048,22.8662 12.9638,31.5095l0.0011811 0.0011811c8.64213,8.64213 20.0669,12.965 31.5083,12.965 11.4413,0 22.8673,-4.32402 31.5095,-12.965l72.0556 -72.0556 -0.0011811 -0.0011811c9.6567,-9.6567 25.3134,-9.6567 34.9701,0 3.27166,3.27166 5.43308,7.23426 6.4878,11.4177zm-585.928 441.146c16.3583,0 29.6197,13.2602 29.6197,29.6197 0,16.3595 -13.2614,29.6197 -29.6197,29.6197 -16.3595,0 -29.6209,-13.2602 -29.6209,-29.6197 0,-16.3595 13.2614,-29.6197 29.6209,-29.6197z"/>
   <path id="_324614264" class="fil1" d="M1539.51 1639.62c-7.11615,-41.2937 -18.1228,-84.3107 -34.65,-126.489l-126.489 126.489 161.139 0zm-162.031 -310.826c-71.6197,-61.7008 -171.817,-106.224 -311.479,-116.79l166.117 211.21 -92.2453 143.189 237.607 -237.608z"/>
   <polygon id="_324613688" class="fil1" points="1033,1210.11 1201.63,1424.52 1063.06,1639.62 948.334,1639.62 "/>
   <path id="_324613928" class="fil0" d="M897.754 427.167c-68.3729,0 -130.681,39.8363 -176.14,104.238 -46.6512,66.0886 -75.5068,157.689 -75.5068,259.131 0,101.443 28.8555,193.043 75.5068,259.131 45.4595,64.402 107.767,104.238 176.14,104.238 68.3729,0 130.681,-39.8363 176.139,-104.238 46.6512,-66.0875 75.5068,-157.688 75.5068,-259.131 0,-101.441 -28.8555,-193.042 -75.5068,-259.131 -45.4583,-64.402 -107.766,-104.238 -176.139,-104.238zm-203.056 85.3052c51.5835,-73.076 123.345,-118.276 203.056,-118.276 79.7103,0 151.473,45.1996 203.055,118.276 50.3918,71.3906 81.5623,169.719 81.5623,278.064 0,108.345 -31.1705,206.675 -81.5623,278.064 -51.5823,73.076 -123.345,118.276 -203.055,118.276 -79.7115,0 -151.473,-45.1996 -203.056,-118.276 -50.3918,-71.3882 -81.5623,-169.719 -81.5623,-278.064 0,-108.345 31.1705,-206.673 81.5623,-278.064z"/>
   <path id="_324614072" class="fil1" d="M1156.97 859.412c0,0 44.5146,-221.7 -99.502,-258.358 0,0 -71.5725,61.9678 -186.784,41.8949 0,0 -171.947,-89.028 -207.735,-38.4036 10.8189,6.01182 -52.3902,60.5044 -36.6591,262.722 0,0 -137.173,-170.949 -39.7819,-377.433 0,0 36.7276,-77.7426 170.271,-98.693l-61.0997 -5.23465c0,0 91.6489,-116.96 232.174,-10.4752 0,0 -26.6197,-68.9457 -88.154,-70.2567 0,0 145.965,-32.3575 238.384,50.5926 0,0 40.487,22.7221 51.8339,57.6355 0,0 237.409,-17.0197 27.052,446.009z"/>
   <polygon id="_324613544" class="fil1" points="897.755,1325.55 831.109,1210.11 964.399,1210.11 "/>
   <polygon id="_324613280" class="fil1" points="969.242,1402.1 897.755,1277.26 826.266,1402.1 873.086,1639.62 922.423,1639.62 "/>
   <path id="_324613304" class="fil1" d="M255.999 1639.62c31.7162,-184.05 140.362,-402.41 473.511,-427.616l-166.119 211.21 139.414 216.406 -446.807 0z"/>
   <polygon id="_324612776" class="fil1" points="762.511,1210.11 593.879,1424.52 732.453,1639.62 847.176,1639.62 "/>
  </g>
 </g>
 <rect class="fil2" width="2048" height="2048"/>
</svg>
